<?xml version="1.0" standalone="no" ?>
<!DOCTYPE svg PUBLIC "-//W3C//DTD SVG 1.1//EN" "http://www.w3.org/Graphics/SVG/1.1/DTD/svg11.dtd">
<svg width="431px" height="89px" viewBox="0 0 431 89" style="background-color: #ffffff00" xmlns="http://www.w3.org/2000/svg" xmlns:xlink="http://www.w3.org/1999/xlink" version="1.1" >
<path stroke="none" fill="#000000" transform="matrix(0.0666667 0 0 0.0666667 -109.6 -242)" d="M 2823.16,4136.55 L 2823.16,4150.41 L 2576.75,4292.68 L 2570.75,4282.29 L 2823.16,4136.55 Z " />
<path stroke="none" fill="#000000" transform="matrix(0.0666667 0 0 0.0666667 -109.6 -242)" d="M 2820.17,4198.15 L 2826.16,4208.54 L 2602.67,4337.57 L 2596.67,4327.18 L 2820.17,4198.15 Z " />
<path stroke="none" fill="#000000" transform="matrix(0.0666667 0 0 0.0666667 -109.6 -242)" d="M 3072.58,4280.55 L 3072.58,4287.48 L 3066.58,4290.95 L 2823.16,4150.41 L 2823.16,4136.55 L 3072.58,4280.55 Z " />
<path stroke="none" fill="#000000" transform="matrix(0.0666667 0 0 0.0666667 -109.6 -242)" d="M 3319,4138.29 L 3325,4148.68 L 3084.58,4287.48 L 3072.58,4287.48 L 3072.58,4280.55 L 3319,4138.29 Z " />
<path stroke="none" fill="#000000" transform="matrix(0.0666667 0 0 0.0666667 -109.6 -242)" d="M 3078.58,4575.48 L 3066.58,4575.48 L 3066.58,4290.95 L 3072.58,4287.48 L 3078.58,4297.87 L 3078.58,4575.48 Z " />
<path stroke="none" fill="#000000" transform="matrix(0.0666667 0 0 0.0666667 -109.6 -242)" d="M 3325,4426.29 L 3319,4436.68 L 3078.58,4297.87 L 3072.58,4287.48 L 3084.58,4287.48 L 3325,4426.29 Z " />
<text x="0" y="0" stroke="none" fill="#008000" transform="matrix(0.0666667 0 0 0.0666667 3.48333 52.6679)" font-style="normal" font-weight="normal" font-size="200px" font-family="Arial" >
B</text>
<text x="0" y="0" stroke="none" fill="#000000" transform="matrix(0.0666667 0 0 0.0666667 12.3766 52.6679)" font-style="normal" font-weight="normal" font-size="200px" font-family="Arial" >
H</text>
<text x="0" y="0" stroke="none" fill="#000000" transform="matrix(0.0666667 0 0 0.0666667 22.0055 55.6012)" font-style="normal" font-weight="normal" font-size="150px" font-family="Arial" >
3</text>
<text x="0" y="0" stroke="none" fill="#000000" transform="matrix(0.0666667 0 0 0.0666667 44.4833 52.6678)" font-style="normal" font-weight="normal" font-size="200px" font-family="Arial" >
+</text>
<path stroke="none" fill="#000000" transform="matrix(0.0666667 0 0 0.0666667 -109.6 -242)" d="M 4074.75,4344.75 L 3582.5,4344.75 L 3582.5,4332.75 L 4074.75,4332.75 Z " />
<path stroke="none" fill="#000000" transform="matrix(0.0666667 0 0 0.0666667 -109.6 -242)" d="M 4178.75,4338.75 C 4178.75,4338.75 4058.75,4369.75 4058.75,4369.75 C 4058.75,4369.75 4073.75,4352.31 4073.75,4338.75 C 4073.75,4324.75 4058.75,4306.75 4058.75,4306.75 C 4058.75,4306.75 4178.75,4338.75 4178.75,4338.75 C 4178.75,4338.75 4178.75,4338.75 4178.75,4338.75 " />
<path stroke="#000000" stroke-width="1" fill="none" transform="matrix(0.0666667 0 0 0.0666667 -109.6 -242)" d="M 4178.75,4338.75 C 4178.75,4338.75 4058.75,4369.75 4058.75,4369.75 C 4058.75,4369.75 4073.75,4352.31 4073.75,4338.75 C 4073.75,4324.75 4058.75,4306.75 4058.75,4306.75 C 4058.75,4306.75 4178.75,4338.75 4178.75,4338.75 C 4178.75,4338.75 4178.75,4338.75 4178.75,4338.75 " />
<path stroke="#000000" stroke-width="12" fill="none" transform="matrix(0.0666667 0 0 0.0666667 -109.6 -242)" d="M 5888.19,3761.25 L 5971.25,3761.25 " />
<path stroke="#000000" stroke-width="12" fill="none" transform="matrix(0.0666667 0 0 0.0666667 -109.6 -242)" d="M 5971.25,3761.25 L 5971.25,4905 " />
<path stroke="#000000" stroke-width="12" fill="none" transform="matrix(0.0666667 0 0 0.0666667 -109.6 -242)" d="M 5971.25,4905 L 5888.19,4905 " />
<path stroke="#000000" stroke-width="12" fill="none" transform="matrix(0.0666667 0 0 0.0666667 -109.6 -242)" d="M 4456.81,4905 L 4373.75,4905 " />
<path stroke="#000000" stroke-width="12" fill="none" transform="matrix(0.0666667 0 0 0.0666667 -109.6 -242)" d="M 4373.75,4905 L 4373.75,3761.25 " />
<path stroke="#000000" stroke-width="12" fill="none" transform="matrix(0.0666667 0 0 0.0666667 -109.6 -242)" d="M 4373.75,3761.25 L 4456.81,3761.25 " />
<path stroke="none" fill="#000000" transform="matrix(0.0666667 0 0 0.0666667 -109.6 -242)" d="M 6070,3699 L 6070,3831 L 6060,3831 L 6060,3699 Z " />
<path stroke="none" fill="#000000" transform="matrix(0.0666667 0 0 0.0666667 -109.6 -242)" d="M 6029,3730 L 6101,3730 L 6101,3740 L 6029,3740 Z " />
<path stroke="none" fill="#000000" transform="matrix(0.0666667 0 0 0.0666667 -109.6 -242)" d="M 6029,3790 L 6101,3790 L 6101,3800 L 6029,3800 Z " />
<path stroke="none" fill="#000000" transform="matrix(0.0666667 0 0 0.0666667 -109.6 -242)" d="M 5278.72,4410.05 L 5286.91,4412.25 L 5286.91,4419.18 L 5035.3,4564.45 L 5039.7,4548.05 L 5278.72,4410.05 Z " />
<path stroke="none" fill="#000000" transform="matrix(0.0666667 0 0 0.0666667 -109.6 -242)" d="M 5213.1,4388.08 L 5219.1,4398.47 L 5165.89,4429.19 L 5159.89,4418.8 L 5213.1,4388.08 Z " />
<path stroke="none" fill="#000000" transform="matrix(0.0666667 0 0 0.0666667 -109.6 -242)" d="M 5106.68,4449.52 L 5112.68,4459.91 L 5059.47,4490.63 L 5053.47,4480.24 L 5106.68,4449.52 Z " />
<path stroke="none" fill="#000000" transform="matrix(0.0666667 0 0 0.0666667 -109.6 -242)" d="M 5536.33,4549.32 L 5536.33,4556.25 L 5530.33,4559.71 L 5286.91,4419.18 L 5286.91,4412.25 L 5291.31,4407.86 L 5536.33,4549.32 Z " />
<path stroke="none" fill="#000000" transform="matrix(0.0666667 0 0 0.0666667 -109.6 -242)" d="M 5782.75,4407.05 L 5788.75,4417.45 L 5548.33,4556.25 L 5536.33,4556.25 L 5536.33,4549.32 L 5782.75,4407.05 Z " />
<path stroke="none" fill="#000000" transform="matrix(0.0666667 0 0 0.0666667 -109.6 -242)" d="M 5542.33,4844.25 L 5530.33,4844.25 L 5530.33,4559.71 L 5536.33,4556.25 L 5542.33,4566.64 L 5542.33,4844.25 Z " />
<path stroke="none" fill="#000000" transform="matrix(0.0666667 0 0 0.0666667 -109.6 -242)" d="M 5788.75,4695.05 L 5782.75,4705.45 L 5542.33,4566.64 L 5536.33,4556.25 L 5548.33,4556.25 L 5788.75,4695.05 Z " />
<text x="0" y="0" stroke="none" fill="#008000" transform="matrix(0.0666667 0 0 0.0666667 228.814 40.7223)" font-style="normal" font-weight="normal" font-size="200px" font-family="Arial" >
B</text>
<text x="0" y="0" stroke="none" fill="#000000" transform="matrix(0.0666667 0 0 0.0666667 211.819 50.3223)" font-style="normal" font-weight="normal" font-size="200px" font-family="Arial" >
H</text>
<path stroke="none" fill="#000000" transform="matrix(0.0666667 0 0 0.0666667 -109.6 -242)" d="M 5194.73,4264.57 L 5205.12,4258.57 L 5233.12,4307.07 L 5222.72,4313.07 L 5194.73,4264.57 Z " />
<path stroke="none" fill="#000000" transform="matrix(0.0666667 0 0 0.0666667 -109.6 -242)" d="M 5250.72,4361.56 L 5261.11,4355.56 L 5291.31,4407.86 L 5278.72,4410.05 L 5250.72,4361.56 Z " />
<path stroke="none" fill="#000000" transform="matrix(0.0666667 0 0 0.0666667 -109.6 -242)" d="M 4993.26,4256.17 L 4987.26,4245.78 L 5041.75,4214.32 L 5047.75,4224.71 L 4993.26,4256.17 Z " />
<path stroke="none" fill="#000000" transform="matrix(0.0666667 0 0 0.0666667 -109.6 -242)" d="M 5039.7,4548.05 L 5035.3,4564.45 L 5003.42,4509.23 L 5013.82,4503.23 L 5039.7,4548.05 Z " />
<path stroke="none" fill="#000000" transform="matrix(0.0666667 0 0 0.0666667 -109.6 -242)" d="M 4987.94,4458.4 L 4977.54,4464.4 L 4951.66,4419.58 L 4962.06,4413.58 L 4987.94,4458.4 Z " />
<path stroke="none" fill="#000000" transform="matrix(0.0666667 0 0 0.0666667 -109.6 -242)" d="M 6714.75,4344.75 L 6222.5,4344.75 L 6222.5,4332.75 L 6714.75,4332.75 Z " />
<path stroke="none" fill="#000000" transform="matrix(0.0666667 0 0 0.0666667 -109.6 -242)" d="M 6818.75,4338.75 C 6818.75,4338.75 6698.75,4369.75 6698.75,4369.75 C 6698.75,4369.75 6713.75,4352.31 6713.75,4338.75 C 6713.75,4324.75 6698.75,4306.75 6698.75,4306.75 C 6698.75,4306.75 6818.75,4338.75 6818.75,4338.75 C 6818.75,4338.75 6818.75,4338.75 6818.75,4338.75 " />
<path stroke="#000000" stroke-width="1" fill="none" transform="matrix(0.0666667 0 0 0.0666667 -109.6 -242)" d="M 6818.75,4338.75 C 6818.75,4338.75 6698.75,4369.75 6698.75,4369.75 C 6698.75,4369.75 6713.75,4352.31 6713.75,4338.75 C 6713.75,4324.75 6698.75,4306.75 6698.75,4306.75 C 6698.75,4306.75 6818.75,4338.75 6818.75,4338.75 C 6818.75,4338.75 6818.75,4338.75 6818.75,4338.75 " />
<path stroke="none" fill="#000000" transform="matrix(0.0666667 0 0 0.0666667 -109.6 -242)" d="M 7549.67,4270.04 L 7555.66,4273.5 L 7555.66,4280.43 L 7310.12,4422.2 L 7304.12,4411.8 L 7549.67,4270.04 Z " />
<path stroke="none" fill="#000000" transform="matrix(0.0666667 0 0 0.0666667 -109.6 -242)" d="M 7804.21,4410.07 L 7804.21,4417 L 7798.21,4420.46 L 7555.66,4280.43 L 7555.66,4273.5 L 7561.66,4270.04 L 7804.21,4410.07 Z " />
<path stroke="none" fill="#000000" transform="matrix(0.0666667 0 0 0.0666667 -109.6 -242)" d="M 8049.76,4268.3 L 8055.76,4278.7 L 7816.21,4417 L 7804.21,4417 L 7804.21,4410.07 L 8049.76,4268.3 Z " />
<path stroke="none" fill="#000000" transform="matrix(0.0666667 0 0 0.0666667 -109.6 -242)" d="M 7810.21,4704 L 7798.21,4704 L 7798.21,4420.46 L 7804.21,4417 L 7810.21,4427.39 L 7810.21,4704 Z " />
<path stroke="none" fill="#000000" transform="matrix(0.0666667 0 0 0.0666667 -109.6 -242)" d="M 8055.76,4555.3 L 8049.76,4565.7 L 7810.21,4427.39 L 7804.21,4417 L 7816.21,4417 L 8055.76,4555.3 Z " />
<text x="0" y="0" stroke="none" fill="#000000" transform="matrix(0.0666667 0 0 0.0666667 242.023 27.1459)" font-style="normal" font-weight="normal" font-size="200px" font-family="Arial" >
H</text>
<path stroke="none" fill="#000000" transform="matrix(0.0666667 0 0 0.0666667 -109.6 -242)" d="M 5253.5,4043.76 L 5261.99,4052.25 L 5214.35,4099.88 L 5205.87,4091.4 L 5253.5,4043.76 Z " />
<text x="0" y="0" stroke="none" fill="#000000" transform="matrix(0.0666667 0 0 0.0666667 247.482 38.2162)" font-style="normal" font-weight="normal" font-size="200px" font-family="Arial" >
H</text>
<path stroke="none" fill="#000000" transform="matrix(0.0666667 0 0 0.0666667 -109.6 -242)" d="M 5341.67,4130.62 L 5343.23,4142.51 L 5229.78,4157.45 L 5228.22,4145.55 L 5341.67,4130.62 Z " />
<path stroke="#ff0000" stroke-width="12" fill="none" transform="matrix(0.0666667 0 0 0.0666667 -109.6 -242)" d="M 5735.66,4138.18 C 5614.94,4138.18 5516.95,4236.17 5516.95,4356.89 C 5516.95,4395.07 5527.16,4433.19 5546.25,4466.25 " />
<path stroke="#ff0000" stroke-width="12" fill="none" transform="matrix(0.0666667 0 0 0.0666667 -109.6 -242)" d="M 5408.2,4368.75 C 5528.92,4368.75 5626.91,4270.76 5626.91,4150.04 C 5626.91,4111.86 5616.7,4073.74 5597.61,4040.68 " />
<text x="0" y="0" stroke="none" fill="#008000" transform="matrix(0.0666667 0 0 0.0666667 389.664 28.9)" font-style="normal" font-weight="normal" font-size="200px" font-family="Arial" >
B</text>
<text x="0" y="0" stroke="none" fill="#000000" transform="matrix(0.0666667 0 0 0.0666667 398.558 28.9)" font-style="normal" font-weight="normal" font-size="200px" font-family="Arial" >
H</text>
<text x="0" y="0" stroke="none" fill="#000000" transform="matrix(0.0666667 0 0 0.0666667 408.187 31.8333)" font-style="normal" font-weight="normal" font-size="150px" font-family="Arial" >
2</text>
<path stroke="none" fill="#000000" transform="matrix(0.0666667 0 0 0.0666667 -109.6 -242)" d="M 7549.67,4096.67 L 7561.66,4096.67 L 7561.66,4270.04 L 7555.66,4273.5 L 7549.67,4270.04 L 7549.67,4096.67 Z " />
</svg>
