<?xml version="1.0" standalone="no" ?>
<!DOCTYPE svg PUBLIC "-//W3C//DTD SVG 1.1//EN" "http://www.w3.org/Graphics/SVG/1.1/DTD/svg11.dtd">
<svg width="453px" height="88px" viewBox="0 0 453 88" style="background-color: #ffffff00" xmlns="http://www.w3.org/2000/svg" xmlns:xlink="http://www.w3.org/1999/xlink" version="1.1" >
<path stroke="none" fill="#000000" transform="matrix(0.0666667 0 0 0.0666667 -109.6 -119.4)" d="M 2823.17,2296.55 L 2823.17,2310.41 L 2576.75,2452.68 L 2570.75,2442.29 L 2823.17,2296.55 Z " />
<path stroke="none" fill="#000000" transform="matrix(0.0666667 0 0 0.0666667 -109.6 -119.4)" d="M 2820.17,2358.15 L 2826.17,2368.54 L 2602.67,2497.57 L 2596.67,2487.18 L 2820.17,2358.15 Z " />
<path stroke="none" fill="#000000" transform="matrix(0.0666667 0 0 0.0666667 -109.6 -119.4)" d="M 3072.58,2440.55 L 3072.58,2447.48 L 3066.58,2450.95 L 2823.17,2310.41 L 2823.17,2296.55 L 3072.58,2440.55 Z " />
<path stroke="none" fill="#000000" transform="matrix(0.0666667 0 0 0.0666667 -109.6 -119.4)" d="M 3319,2298.29 L 3325,2308.68 L 3084.58,2447.48 L 3072.58,2447.48 L 3072.58,2440.55 L 3319,2298.29 Z " />
<path stroke="none" fill="#000000" transform="matrix(0.0666667 0 0 0.0666667 -109.6 -119.4)" d="M 3078.58,2735.48 L 3066.58,2735.48 L 3066.58,2450.95 L 3072.58,2447.48 L 3078.58,2457.87 L 3078.58,2735.48 Z " />
<path stroke="none" fill="#000000" transform="matrix(0.0666667 0 0 0.0666667 -109.6 -119.4)" d="M 3325,2586.29 L 3319,2596.68 L 3078.58,2457.87 L 3072.58,2447.48 L 3084.58,2447.48 L 3325,2586.29 Z " />
<text x="0" y="0" stroke="none" fill="#008000" transform="matrix(0.0666667 0 0 0.0666667 3.48333 52.6012)" font-style="normal" font-weight="normal" font-size="200px" font-family="Arial" >
B</text>
<text x="0" y="0" stroke="none" fill="#000000" transform="matrix(0.0666667 0 0 0.0666667 12.3766 52.6012)" font-style="normal" font-weight="normal" font-size="200px" font-family="Arial" >
H</text>
<text x="0" y="0" stroke="none" fill="#000000" transform="matrix(0.0666667 0 0 0.0666667 22.0055 55.5345)" font-style="normal" font-weight="normal" font-size="150px" font-family="Arial" >
3</text>
<text x="0" y="0" stroke="none" fill="#000000" transform="matrix(0.0666667 0 0 0.0666667 44.4833 52.6012)" font-style="normal" font-weight="normal" font-size="200px" font-family="Arial" >
+</text>
<path stroke="none" fill="#000000" transform="matrix(0.0666667 0 0 0.0666667 -109.6 -119.4)" d="M 4074.75,2504.75 L 3582.5,2504.75 L 3582.5,2492.75 L 4074.75,2492.75 Z " />
<path stroke="none" fill="#000000" transform="matrix(0.0666667 0 0 0.0666667 -109.6 -119.4)" d="M 4178.75,2498.75 C 4178.75,2498.75 4058.75,2529.75 4058.75,2529.75 C 4058.75,2529.75 4073.75,2512.31 4073.75,2498.75 C 4073.75,2484.75 4058.75,2466.75 4058.75,2466.75 C 4058.75,2466.75 4178.75,2498.75 4178.75,2498.75 C 4178.75,2498.75 4178.75,2498.75 4178.75,2498.75 " />
<path stroke="#000000" stroke-width="1" fill="none" transform="matrix(0.0666667 0 0 0.0666667 -109.6 -119.4)" d="M 4178.75,2498.75 C 4178.75,2498.75 4058.75,2529.75 4058.75,2529.75 C 4058.75,2529.75 4073.75,2512.31 4073.75,2498.75 C 4073.75,2484.75 4058.75,2466.75 4058.75,2466.75 C 4058.75,2466.75 4178.75,2498.75 4178.75,2498.75 C 4178.75,2498.75 4178.75,2498.75 4178.75,2498.75 " />
<path stroke="#000000" stroke-width="12" fill="none" transform="matrix(0.0666667 0 0 0.0666667 -109.6 -119.4)" d="M 5888.19,1921.25 L 5971.25,1921.25 " />
<path stroke="#000000" stroke-width="12" fill="none" transform="matrix(0.0666667 0 0 0.0666667 -109.6 -119.4)" d="M 5971.25,1921.25 L 5971.25,3065 " />
<path stroke="#000000" stroke-width="12" fill="none" transform="matrix(0.0666667 0 0 0.0666667 -109.6 -119.4)" d="M 5971.25,3065 L 5888.19,3065 " />
<path stroke="#000000" stroke-width="12" fill="none" transform="matrix(0.0666667 0 0 0.0666667 -109.6 -119.4)" d="M 4456.81,3065 L 4373.75,3065 " />
<path stroke="#000000" stroke-width="12" fill="none" transform="matrix(0.0666667 0 0 0.0666667 -109.6 -119.4)" d="M 4373.75,3065 L 4373.75,1921.25 " />
<path stroke="#000000" stroke-width="12" fill="none" transform="matrix(0.0666667 0 0 0.0666667 -109.6 -119.4)" d="M 4373.75,1921.25 L 4456.81,1921.25 " />
<path stroke="none" fill="#000000" transform="matrix(0.0666667 0 0 0.0666667 -109.6 -119.4)" d="M 6070,1859 L 6070,1991 L 6060,1991 L 6060,1859 Z " />
<path stroke="none" fill="#000000" transform="matrix(0.0666667 0 0 0.0666667 -109.6 -119.4)" d="M 6029,1890 L 6101,1890 L 6101,1900 L 6029,1900 Z " />
<path stroke="none" fill="#000000" transform="matrix(0.0666667 0 0 0.0666667 -109.6 -119.4)" d="M 6029,1950 L 6101,1950 L 6101,1960 L 6029,1960 Z " />
<path stroke="none" fill="#000000" transform="matrix(0.0666667 0 0 0.0666667 -109.6 -119.4)" d="M 5278.72,2570.05 L 5286.92,2572.25 L 5286.92,2579.18 L 5035.3,2724.45 L 5039.7,2708.05 L 5278.72,2570.05 Z " />
<path stroke="none" fill="#000000" transform="matrix(0.0666667 0 0 0.0666667 -109.6 -119.4)" d="M 5213.1,2548.08 L 5219.1,2558.47 L 5165.89,2589.19 L 5159.89,2578.8 L 5213.1,2548.08 Z " />
<path stroke="none" fill="#000000" transform="matrix(0.0666667 0 0 0.0666667 -109.6 -119.4)" d="M 5106.68,2609.52 L 5112.68,2619.91 L 5059.47,2650.63 L 5053.47,2640.24 L 5106.68,2609.52 Z " />
<path stroke="none" fill="#000000" transform="matrix(0.0666667 0 0 0.0666667 -109.6 -119.4)" d="M 5536.33,2709.32 L 5536.33,2716.25 L 5530.33,2719.71 L 5286.92,2579.18 L 5286.92,2572.25 L 5291.31,2567.86 L 5536.33,2709.32 Z " />
<path stroke="none" fill="#000000" transform="matrix(0.0666667 0 0 0.0666667 -109.6 -119.4)" d="M 5782.75,2567.05 L 5788.75,2577.45 L 5548.33,2716.25 L 5536.33,2716.25 L 5536.33,2709.32 L 5782.75,2567.05 Z " />
<path stroke="none" fill="#000000" transform="matrix(0.0666667 0 0 0.0666667 -109.6 -119.4)" d="M 5542.33,3004.25 L 5530.33,3004.25 L 5530.33,2719.71 L 5536.33,2716.25 L 5542.33,2726.64 L 5542.33,3004.25 Z " />
<path stroke="none" fill="#000000" transform="matrix(0.0666667 0 0 0.0666667 -109.6 -119.4)" d="M 5788.75,2855.05 L 5782.75,2865.45 L 5542.33,2726.64 L 5536.33,2716.25 L 5548.33,2716.25 L 5788.75,2855.05 Z " />
<text x="0" y="0" stroke="none" fill="#000000" transform="matrix(0.0666667 0 0 0.0666667 228.447 40.6557)" font-style="normal" font-weight="normal" font-size="200px" font-family="Arial" >
H</text>
<text x="0" y="0" stroke="none" fill="#008000" transform="matrix(0.0666667 0 0 0.0666667 212.187 50.2557)" font-style="normal" font-weight="normal" font-size="200px" font-family="Arial" >
B</text>
<path stroke="none" fill="#000000" transform="matrix(0.0666667 0 0 0.0666667 -109.6 -119.4)" d="M 5201.08,2435.58 L 5211.47,2429.58 L 5237.35,2474.4 L 5226.96,2480.4 L 5201.08,2435.58 Z " />
<path stroke="none" fill="#000000" transform="matrix(0.0666667 0 0 0.0666667 -109.6 -119.4)" d="M 5252.84,2525.23 L 5263.23,2519.23 L 5291.31,2567.86 L 5278.72,2570.05 L 5252.84,2525.23 Z " />
<path stroke="none" fill="#000000" transform="matrix(0.0666667 0 0 0.0666667 -109.6 -119.4)" d="M 4976.42,2425.89 L 4970.42,2415.5 L 5038.24,2376.34 L 5044.24,2386.73 L 4976.42,2425.89 Z " />
<path stroke="none" fill="#000000" transform="matrix(0.0666667 0 0 0.0666667 -109.6 -119.4)" d="M 5039.7,2708.05 L 5035.3,2724.45 L 5001.31,2665.56 L 5011.7,2659.56 L 5039.7,2708.05 Z " />
<path stroke="none" fill="#000000" transform="matrix(0.0666667 0 0 0.0666667 -109.6 -119.4)" d="M 4983.7,2611.07 L 4973.31,2617.07 L 4945.31,2568.57 L 4955.7,2562.57 L 4983.7,2611.07 Z " />
<text x="0" y="0" stroke="none" fill="#000000" transform="matrix(0.0666667 0 0 0.0666667 193.273 45.2863)" font-style="normal" font-weight="normal" font-size="200px" font-family="Arial" >
H</text>
<path stroke="none" fill="#000000" transform="matrix(0.0666667 0 0 0.0666667 -109.6 -119.4)" d="M 4710.26,2423.95 L 4713.36,2412.36 L 4802.7,2436.29 L 4799.59,2447.88 L 4710.26,2423.95 Z " />
<text x="0" y="0" stroke="none" fill="#000000" transform="matrix(0.0666667 0 0 0.0666667 198.242 63.8321)" font-style="normal" font-weight="normal" font-size="200px" font-family="Arial" >
H</text>
<path stroke="none" fill="#000000" transform="matrix(0.0666667 0 0 0.0666667 -109.6 -119.4)" d="M 4776.03,2592.79 L 4767.55,2584.3 L 4802.2,2549.65 L 4810.68,2558.14 L 4776.03,2592.79 Z " />
<path stroke="none" fill="#000000" transform="matrix(0.0666667 0 0 0.0666667 -109.6 -119.4)" d="M 6714.75,2504.75 L 6222.5,2504.75 L 6222.5,2492.75 L 6714.75,2492.75 Z " />
<path stroke="none" fill="#000000" transform="matrix(0.0666667 0 0 0.0666667 -109.6 -119.4)" d="M 6818.75,2498.75 C 6818.75,2498.75 6698.75,2529.75 6698.75,2529.75 C 6698.75,2529.75 6713.75,2512.31 6713.75,2498.75 C 6713.75,2484.75 6698.75,2466.75 6698.75,2466.75 C 6698.75,2466.75 6818.75,2498.75 6818.75,2498.75 C 6818.75,2498.75 6818.75,2498.75 6818.75,2498.75 " />
<path stroke="#000000" stroke-width="1" fill="none" transform="matrix(0.0666667 0 0 0.0666667 -109.6 -119.4)" d="M 6818.75,2498.75 C 6818.75,2498.75 6698.75,2529.75 6698.75,2529.75 C 6698.75,2529.75 6713.75,2512.31 6713.75,2498.75 C 6713.75,2484.75 6698.75,2466.75 6698.75,2466.75 C 6698.75,2466.75 6818.75,2498.75 6818.75,2498.75 C 6818.75,2498.75 6818.75,2498.75 6818.75,2498.75 " />
<path stroke="none" fill="#000000" transform="matrix(0.0666667 0 0 0.0666667 -109.6 -119.4)" d="M 7893.16,2426.57 L 7893.16,2440.43 L 7644.62,2583.93 L 7644.62,2570.07 L 7893.16,2426.57 Z " />
<path stroke="none" fill="#000000" transform="matrix(0.0666667 0 0 0.0666667 -109.6 -119.4)" d="M 8141.71,2570.07 L 8141.71,2577 L 8135.71,2580.46 L 7893.16,2440.43 L 7893.16,2426.57 L 8141.71,2570.07 Z " />
<path stroke="none" fill="#000000" transform="matrix(0.0666667 0 0 0.0666667 -109.6 -119.4)" d="M 8387.26,2428.3 L 8393.26,2438.7 L 8153.71,2577 L 8141.71,2577 L 8141.71,2570.07 L 8387.26,2428.3 Z " />
<path stroke="none" fill="#000000" transform="matrix(0.0666667 0 0 0.0666667 -109.6 -119.4)" d="M 8147.71,2864 L 8135.71,2864 L 8135.71,2580.46 L 8141.71,2577 L 8147.71,2587.39 L 8147.71,2864 Z " />
<path stroke="none" fill="#000000" transform="matrix(0.0666667 0 0 0.0666667 -109.6 -119.4)" d="M 8393.26,2715.3 L 8387.26,2725.7 L 8147.71,2587.39 L 8141.71,2577 L 8153.71,2577 L 8393.26,2715.3 Z " />
<text x="0" y="0" stroke="none" fill="#008000" transform="matrix(0.0666667 0 0 0.0666667 363.834 48.0333)" font-style="normal" font-weight="normal" font-size="200px" font-family="Arial" >
H</text>
<text x="0" y="0" stroke="none" fill="#008000" transform="matrix(0.0666667 0 0 0.0666667 373.463 50.9667)" font-style="normal" font-weight="normal" font-size="150px" font-family="Arial" >
2</text>
<text x="0" y="0" stroke="none" fill="#008000" transform="matrix(0.0666667 0 0 0.0666667 379.024 48.0333)" font-style="normal" font-weight="normal" font-size="200px" font-family="Arial" >
B</text>
<path stroke="none" fill="#000000" transform="matrix(0.0666667 0 0 0.0666667 -109.6 -119.4)" d="M 7644.62,2570.07 L 7644.62,2583.93 L 7484.35,2491.4 L 7490.35,2481.01 L 7644.62,2570.07 Z " />
</svg>
